<svg viewBox="0 0 800 450" xmlns="http://www.w3.org/2000/svg">
  <defs>
    <linearGradient id="sky5" x1="0%" y1="0%" x2="0%" y2="100%">
      <stop offset="0%" stop-color="#6A8EA8"/>
      <stop offset="100%" stop-color="#A8C0D0"/>
    </linearGradient>
    <linearGradient id="land5" x1="0%" y1="0%" x2="0%" y2="100%">
      <stop offset="0%" stop-color="#7A8A6A"/>
      <stop offset="100%" stop-color="#5A7050"/>
    </linearGradient>
    <linearGradient id="trainBody5" x1="0%" y1="0%" x2="0%" y2="100%">
      <stop offset="0%" stop-color="#3A2510"/>
      <stop offset="100%" stop-color="#1A1008"/>
    </linearGradient>
    <filter id="smoke5">
      <feGaussianBlur stdDeviation="4"/>
    </filter>
  </defs>

  <!-- Sky -->
  <rect width="800" height="450" fill="url(#sky5)"/>

  <!-- Dramatic sky gradient overlay -->
  <rect width="800" height="280" fill="#4A6880" opacity="0.3"/>

  <!-- Rolling hills background -->
  <path d="M0,200 Q100,160 200,185 Q300,210 400,180 Q500,150 600,175 Q700,200 800,168 L800,450 L0,450 Z" fill="#6A7A5A" opacity="0.6"/>
  <path d="M0,240 Q150,210 280,228 Q400,245 520,222 Q640,200 800,218 L800,450 L0,450 Z" fill="url(#land5)"/>

  <!-- Smoke billows (large, behind train) -->
  <ellipse cx="200" cy="140" rx="55" ry="40" fill="#D8D0C8" opacity="0.5" filter="url(#smoke5)"/>
  <ellipse cx="165" cy="110" rx="45" ry="35" fill="#D0C8C0" opacity="0.45" filter="url(#smoke5)"/>
  <ellipse cx="195" cy="82" rx="38" ry="30" fill="#C8C0B8" opacity="0.4" filter="url(#smoke5)"/>
  <ellipse cx="220" cy="60" rx="30" ry="25" fill="#C0B8B0" opacity="0.35" filter="url(#smoke5)"/>
  <ellipse cx="235" cy="38" rx="22" ry="20" fill="#B8B0A8" opacity="0.3" filter="url(#smoke5)"/>

  <!-- Train tracks -->
  <!-- Rail 1 -->
  <rect x="-10" y="330" width="820" height="6" rx="3" fill="#909080"/>
  <!-- Rail 2 -->
  <rect x="-10" y="350" width="820" height="6" rx="3" fill="#909080"/>
  <!-- Sleepers -->
  <g fill="#6A5030">
    <rect x="20" y="325" width="12" height="36" rx="2"/>
    <rect x="55" y="325" width="12" height="36" rx="2"/>
    <rect x="90" y="325" width="12" height="36" rx="2"/>
    <rect x="125" y="325" width="12" height="36" rx="2"/>
    <rect x="160" y="325" width="12" height="36" rx="2"/>
    <rect x="195" y="325" width="12" height="36" rx="2"/>
    <rect x="230" y="325" width="12" height="36" rx="2"/>
    <rect x="265" y="325" width="12" height="36" rx="2"/>
    <rect x="300" y="325" width="12" height="36" rx="2"/>
    <rect x="335" y="325" width="12" height="36" rx="2"/>
    <rect x="370" y="325" width="12" height="36" rx="2"/>
    <rect x="405" y="325" width="12" height="36" rx="2"/>
    <rect x="440" y="325" width="12" height="36" rx="2"/>
    <rect x="475" y="325" width="12" height="36" rx="2"/>
    <rect x="510" y="325" width="12" height="36" rx="2"/>
    <rect x="545" y="325" width="12" height="36" rx="2"/>
    <rect x="580" y="325" width="12" height="36" rx="2"/>
    <rect x="615" y="325" width="12" height="36" rx="2"/>
    <rect x="650" y="325" width="12" height="36" rx="2"/>
    <rect x="685" y="325" width="12" height="36" rx="2"/>
    <rect x="720" y="325" width="12" height="36" rx="2"/>
    <rect x="755" y="325" width="12" height="36" rx="2"/>
  </g>

  <!-- === LOCOMOTIVE === -->
  <!-- Tender (coal car behind) -->
  <rect x="95" y="268" width="100" height="65" rx="4" fill="#2A2015"/>
  <rect x="98" y="252" width="94" height="20" rx="3" fill="#3A3020"/>
  <!-- Coal pile -->
  <ellipse cx="145" cy="252" rx="44" ry="10" fill="#1A1510"/>
  <ellipse cx="145" cy="245" rx="38" ry="9" fill="#252015" opacity="0.8"/>
  <!-- Tender wheels -->
  <circle cx="120" cy="333" r="14" fill="#2A1A08" stroke="#806030" stroke-width="2"/>
  <circle cx="120" cy="333" r="8" fill="#1A0E04" stroke="#B08040" stroke-width="1.5"/>
  <circle cx="120" cy="333" r="2.5" fill="#D0A040"/>
  <circle cx="168" cy="333" r="14" fill="#2A1A08" stroke="#806030" stroke-width="2"/>
  <circle cx="168" cy="333" r="8" fill="#1A0E04" stroke="#B08040" stroke-width="1.5"/>
  <circle cx="168" cy="333" r="2.5" fill="#D0A040"/>

  <!-- Locomotive main body -->
  <!-- Cab -->
  <rect x="195" y="232" width="100" height="101" rx="4" fill="#2E1A08" stroke="#806030" stroke-width="2"/>
  <!-- Cab roof -->
  <rect x="190" y="225" width="110" height="14" rx="3" fill="#1A0E04"/>
  <!-- Cab windows -->
  <rect x="207" y="242" width="38" height="30" rx="3" fill="#7AAAC0" stroke="#806030" stroke-width="1.5"/>
  <line x1="226" y1="242" x2="226" y2="272" stroke="#606040" stroke-width="1"/>
  <rect x="255" y="242" width="32" height="30" rx="3" fill="#7AAAC0" stroke="#806030" stroke-width="1.5"/>
  <!-- Cab door -->
  <rect x="205" y="278" width="30" height="52" rx="2" fill="#1A0E04" stroke="#806030" stroke-width="1"/>
  <circle cx="232" cy="304" r="3" fill="#C0A030"/>

  <!-- Boiler -->
  <rect x="292" y="250" width="165" height="68" fill="#8B2020"/>
  <ellipse cx="295" cy="284" rx="10" ry="34" fill="#8B2020"/>
  <ellipse cx="457" cy="284" rx="14" ry="36" fill="#A02828"/>
  <!-- Boiler bands -->
  <g stroke="#600808" stroke-width="2" opacity="0.7">
    <line x1="325" y1="250" x2="325" y2="318"/>
    <line x1="355" y1="250" x2="355" y2="318"/>
    <line x1="385" y1="250" x2="385" y2="318"/>
    <line x1="415" y1="250" x2="415" y2="318"/>
    <line x1="440" y1="250" x2="440" y2="318"/>
  </g>
  <!-- Boiler handrail -->
  <line x1="295" y1="255" x2="457" y2="255" stroke="#C08030" stroke-width="2"/>

  <!-- Smokestack -->
  <rect x="420" y="205" width="22" height="50" rx="4" fill="#1A1010"/>
  <ellipse cx="431" cy="205" rx="16" ry="7" fill="#252015"/>
  <ellipse cx="431" cy="200" rx="18" ry="6" fill="#1A1510"/>

  <!-- Dome on boiler -->
  <ellipse cx="370" cy="250" rx="20" ry="10" fill="#9A3030"/>
  <ellipse cx="370" cy="243" rx="16" ry="8" fill="#B03838"/>

  <!-- Steam pipe / whistle -->
  <rect x="360" y="235" width="6" height="18" fill="#808060"/>
  <rect x="356" y="232" width="14" height="6" rx="2" fill="#909070"/>

  <!-- Cowcatcher -->
  <polygon points="470,290 505,295 505,315 470,315" fill="#707060"/>
  <g stroke="#505048" stroke-width="1.5">
    <line x1="470" y1="293" x2="504" y2="297"/>
    <line x1="470" y1="300" x2="504" y2="304"/>
    <line x1="470" y1="307" x2="504" y2="310"/>
  </g>

  <!-- Headlight -->
  <rect x="456" y="265" width="22" height="16" rx="3" fill="#606048"/>
  <ellipse cx="467" cy="273" rx="8" ry="7" fill="#FFE870" opacity="0.9"/>
  <!-- Light beam -->
  <path d="M478,270 Q560,260 600,265 Q560,278 478,276" fill="#FFE870" opacity="0.12"/>

  <!-- Large drive wheels -->
  <!-- Wheel 1 -->
  <circle cx="308" cy="333" r="22" fill="#2A1A08" stroke="#806030" stroke-width="2.5"/>
  <circle cx="308" cy="333" r="14" fill="#1A0E04" stroke="#C0A030" stroke-width="2"/>
  <circle cx="308" cy="333" r="4" fill="#D0A040"/>
  <!-- Spokes -->
  <g stroke="#C0A030" stroke-width="1.5">
    <line x1="308" y1="320" x2="308" y2="311"/>
    <line x1="308" y1="346" x2="308" y2="355"/>
    <line x1="295" y1="333" x2="286" y2="333"/>
    <line x1="321" y1="333" x2="330" y2="333"/>
    <line x1="299" y1="324" x2="293" y2="318"/>
    <line x1="317" y1="342" x2="323" y2="348"/>
    <line x1="317" y1="324" x2="323" y2="318"/>
    <line x1="299" y1="342" x2="293" y2="348"/>
  </g>

  <!-- Wheel 2 -->
  <circle cx="365" cy="333" r="22" fill="#2A1A08" stroke="#806030" stroke-width="2.5"/>
  <circle cx="365" cy="333" r="14" fill="#1A0E04" stroke="#C0A030" stroke-width="2"/>
  <circle cx="365" cy="333" r="4" fill="#D0A040"/>
  <g stroke="#C0A030" stroke-width="1.5">
    <line x1="365" y1="320" x2="365" y2="311"/>
    <line x1="365" y1="346" x2="365" y2="355"/>
    <line x1="352" y1="333" x2="343" y2="333"/>
    <line x1="378" y1="333" x2="387" y2="333"/>
    <line x1="356" y1="324" x2="350" y2="318"/>
    <line x1="374" y1="342" x2="380" y2="348"/>
    <line x1="374" y1="324" x2="380" y2="318"/>
    <line x1="356" y1="342" x2="350" y2="348"/>
  </g>

  <!-- Wheel 3 -->
  <circle cx="422" cy="333" r="22" fill="#2A1A08" stroke="#806030" stroke-width="2.5"/>
  <circle cx="422" cy="333" r="14" fill="#1A0E04" stroke="#C0A030" stroke-width="2"/>
  <circle cx="422" cy="333" r="4" fill="#D0A040"/>
  <g stroke="#C0A030" stroke-width="1.5">
    <line x1="422" y1="320" x2="422" y2="311"/>
    <line x1="422" y1="346" x2="422" y2="355"/>
    <line x1="409" y1="333" x2="400" y2="333"/>
    <line x1="435" y1="333" x2="444" y2="333"/>
    <line x1="413" y1="324" x2="407" y2="318"/>
    <line x1="431" y1="342" x2="437" y2="348"/>
    <line x1="431" y1="324" x2="437" y2="318"/>
    <line x1="413" y1="342" x2="407" y2="348"/>
  </g>

  <!-- Small pilot wheel -->
  <circle cx="475" cy="333" r="13" fill="#2A1A08" stroke="#806030" stroke-width="2"/>
  <circle cx="475" cy="333" r="7" fill="#1A0E04" stroke="#B08040" stroke-width="1.5"/>
  <circle cx="475" cy="333" r="2" fill="#D0A040"/>

  <!-- Coupling rods -->
  <rect x="296" y="329" width="138" height="6" rx="3" fill="#806030"/>

  <!-- Cab small wheels -->
  <circle cx="218" cy="333" r="13" fill="#2A1A08" stroke="#806030" stroke-width="1.5"/>
  <circle cx="218" cy="333" r="7" fill="#1A0E04"/>
  <circle cx="255" cy="333" r="13" fill="#2A1A08" stroke="#806030" stroke-width="1.5"/>
  <circle cx="255" cy="333" r="7" fill="#1A0E04"/>

  <!-- Platform/station hint on right -->
  <rect x="560" y="290" width="240" height="45" fill="#C4A870" opacity="0.7"/>
  <rect x="560" y="286" width="240" height="8" fill="#B09050" opacity="0.7"/>
  <!-- Platform pillars -->
  <rect x="580" y="250" width="8" height="44" fill="#A08040" opacity="0.7"/>
  <rect x="640" y="250" width="8" height="44" fill="#A08040" opacity="0.7"/>
  <rect x="700" y="250" width="8" height="44" fill="#A08040" opacity="0.7"/>
  <rect x="760" y="250" width="8" height="44" fill="#A08040" opacity="0.7"/>
  <!-- Platform roof -->
  <rect x="572" y="246" width="200" height="8" rx="3" fill="#906830" opacity="0.7"/>

  <!-- Station people (silhouettes) -->
  <ellipse cx="600" cy="292" rx="8" ry="12" fill="#4A3820" opacity="0.5"/>
  <circle cx="600" cy="278" r="7" fill="#4A3820" opacity="0.5"/>
  <ellipse cx="625" cy="293" rx="7" ry="11" fill="#4A3820" opacity="0.4"/>
  <circle cx="625" cy="280" r="6" fill="#4A3820" opacity="0.4"/>
  <ellipse cx="648" cy="291" rx="7" ry="12" fill="#4A3820" opacity="0.5"/>
  <circle cx="648" cy="277" r="7" fill="#4A3820" opacity="0.5"/>

  <!-- Station sign -->
  <rect x="700" y="258" width="90" height="22" rx="3" fill="#C0392B"/>
  <text x="745" y="273" text-anchor="middle" font-size="9" fill="white" font-weight="bold" font-family="serif" letter-spacing="1">MUSTERDORF</text>

  <!-- Label -->
  <rect x="0" y="415" width="800" height="35" fill="#1A1010" opacity="0.9"/>
  <text x="400" y="437" text-anchor="middle" font-size="14" font-weight="bold" fill="#E8D080" font-family="Georgia, serif" letter-spacing="3">MUSEUMSBAHN MUSTERDORF (MbMd)</text>
</svg>
